<mxfile host="app.diagrams.net" agent="Mozilla/5.0 (Windows NT 10.0; Win64; x64) AppleWebKit/537.36 (KHTML, like Gecko) Chrome/133.0.0.0 Safari/537.36" version="24.7.14">
  <diagram name="Page-1" id="JKxjO8dKXMGWuLHvCbJ9">
    <mxGraphModel dx="1168" dy="694" grid="1" gridSize="4" guides="1" tooltips="1" connect="1" arrows="1" fold="1" page="1" pageScale="1" pageWidth="1100" pageHeight="850" math="0" shadow="0">
      <root>
        <mxCell id="0" />
        <mxCell id="1" parent="0" />
        <mxCell id="u1_5PXAy5bbMglG3VC6p-291" value="" style="rounded=0;whiteSpace=wrap;html=1;movable=1;resizable=1;rotatable=1;deletable=1;editable=1;locked=0;connectable=1;" vertex="1" parent="1">
          <mxGeometry x="3.3900000000000006" y="286" width="965.22" height="480" as="geometry" />
        </mxCell>
        <mxCell id="u1_5PXAy5bbMglG3VC6p-268" value="" style="rounded=0;whiteSpace=wrap;html=1;shadow=0;strokeColor=default;movable=0;resizable=0;rotatable=0;deletable=0;editable=0;locked=1;connectable=0;" vertex="1" parent="1">
          <mxGeometry x="751.64" y="598" width="156.36" height="152" as="geometry" />
        </mxCell>
        <mxCell id="u1_5PXAy5bbMglG3VC6p-269" value="" style="rounded=0;whiteSpace=wrap;html=1;fillColor=default;strokeWidth=1;strokeColor=#ffffff;movable=0;resizable=0;rotatable=0;deletable=0;editable=0;locked=1;connectable=0;" vertex="1" parent="1">
          <mxGeometry x="755.6" y="590" width="20" height="16" as="geometry" />
        </mxCell>
        <mxCell id="u1_5PXAy5bbMglG3VC6p-270" value="" style="image;aspect=fixed;html=1;points=[];align=center;fontSize=12;image=img/lib/azure2/networking/Virtual_Networks.svg;movable=0;resizable=0;rotatable=0;deletable=0;editable=0;locked=1;connectable=0;" vertex="1" parent="1">
          <mxGeometry x="754.5" y="591.37" width="22.2" height="13.25" as="geometry" />
        </mxCell>
        <mxCell id="u1_5PXAy5bbMglG3VC6p-233" value="" style="rounded=0;whiteSpace=wrap;html=1;shadow=0;strokeColor=default;movable=1;resizable=1;rotatable=1;deletable=1;editable=1;locked=0;connectable=1;" vertex="1" parent="1">
          <mxGeometry x="748.78" y="312" width="155.22" height="152" as="geometry" />
        </mxCell>
        <mxCell id="u1_5PXAy5bbMglG3VC6p-234" value="" style="rounded=0;whiteSpace=wrap;html=1;fillColor=default;strokeWidth=1;strokeColor=#ffffff;movable=1;resizable=1;rotatable=1;deletable=1;editable=1;locked=0;connectable=1;" vertex="1" parent="1">
          <mxGeometry x="752.74" y="304.01" width="20" height="16" as="geometry" />
        </mxCell>
        <mxCell id="u1_5PXAy5bbMglG3VC6p-235" value="" style="image;aspect=fixed;html=1;points=[];align=center;fontSize=12;image=img/lib/azure2/networking/Virtual_Networks.svg;movable=1;resizable=1;rotatable=1;deletable=1;editable=1;locked=0;connectable=1;" vertex="1" parent="1">
          <mxGeometry x="751.64" y="305.38" width="22.2" height="13.25" as="geometry" />
        </mxCell>
        <mxCell id="u1_5PXAy5bbMglG3VC6p-62" value="" style="rounded=0;whiteSpace=wrap;html=1;shadow=0;strokeColor=default;movable=0;resizable=0;rotatable=0;deletable=0;editable=0;locked=1;connectable=0;" vertex="1" parent="1">
          <mxGeometry x="12" y="492" width="200" height="148" as="geometry" />
        </mxCell>
        <mxCell id="u1_5PXAy5bbMglG3VC6p-63" value="" style="rounded=0;whiteSpace=wrap;html=1;fillColor=default;strokeWidth=1;strokeColor=#ffffff;movable=1;resizable=1;rotatable=1;deletable=1;editable=1;locked=0;connectable=1;" vertex="1" parent="1">
          <mxGeometry x="19.960000000000008" y="484" width="20" height="16" as="geometry" />
        </mxCell>
        <mxCell id="u1_5PXAy5bbMglG3VC6p-65" value="" style="image;aspect=fixed;html=1;points=[];align=center;fontSize=12;image=img/lib/azure2/networking/Virtual_Networks.svg;movable=0;resizable=0;rotatable=0;deletable=0;editable=0;locked=1;connectable=0;" vertex="1" parent="1">
          <mxGeometry x="18.860000000000014" y="485.38" width="22.2" height="13.25" as="geometry" />
        </mxCell>
        <mxCell id="u1_5PXAy5bbMglG3VC6p-66" value="" style="rounded=0;whiteSpace=wrap;html=1;shadow=0;strokeColor=default;movable=0;resizable=0;rotatable=0;deletable=0;editable=0;locked=1;connectable=0;" vertex="1" parent="1">
          <mxGeometry x="304" y="444" width="324" height="244" as="geometry" />
        </mxCell>
        <mxCell id="u1_5PXAy5bbMglG3VC6p-67" value="" style="rounded=0;whiteSpace=wrap;html=1;fillColor=default;strokeWidth=1;strokeColor=#ffffff;movable=0;resizable=0;rotatable=0;deletable=0;editable=0;locked=1;connectable=0;" vertex="1" parent="1">
          <mxGeometry x="307.96000000000004" y="436" width="20" height="16" as="geometry" />
        </mxCell>
        <mxCell id="u1_5PXAy5bbMglG3VC6p-68" value="" style="image;aspect=fixed;html=1;points=[];align=center;fontSize=12;image=img/lib/azure2/networking/Virtual_Networks.svg;movable=0;resizable=0;rotatable=0;deletable=0;editable=0;locked=1;connectable=0;" vertex="1" parent="1">
          <mxGeometry x="306.86" y="437.38" width="22.2" height="13.25" as="geometry" />
        </mxCell>
        <mxCell id="u1_5PXAy5bbMglG3VC6p-55" value="" style="rounded=0;whiteSpace=wrap;html=1;shadow=0;strokeColor=default;movable=1;resizable=1;rotatable=1;deletable=1;editable=1;locked=0;connectable=1;" vertex="1" parent="1">
          <mxGeometry x="24" y="526" width="68" height="72" as="geometry" />
        </mxCell>
        <mxCell id="u1_5PXAy5bbMglG3VC6p-56" value="" style="rounded=0;whiteSpace=wrap;html=1;fillColor=default;strokeWidth=1;strokeColor=#ffffff;movable=1;resizable=1;rotatable=1;deletable=1;editable=1;locked=0;connectable=1;" vertex="1" parent="1">
          <mxGeometry x="28" y="518" width="20" height="16" as="geometry" />
        </mxCell>
        <mxCell id="u1_5PXAy5bbMglG3VC6p-58" value="" style="image;aspect=fixed;html=1;points=[];align=center;fontSize=12;image=img/lib/azure2/networking/Subnet.svg;imageBorder=none;movable=1;resizable=1;rotatable=1;deletable=1;editable=1;locked=0;connectable=1;" vertex="1" parent="1">
          <mxGeometry x="28" y="520" width="20.04" height="12" as="geometry" />
        </mxCell>
        <mxCell id="u1_5PXAy5bbMglG3VC6p-72" value="&lt;p style=&quot;line-height: 40%;&quot;&gt;&lt;font style=&quot;font-size: 6px;&quot;&gt;workload-subnet&lt;br&gt;172.16.10.0/24&lt;/font&gt;&lt;/p&gt;" style="text;html=1;align=center;verticalAlign=middle;whiteSpace=wrap;rounded=0;fillColor=none;strokeColor=none;movable=1;resizable=1;rotatable=1;deletable=1;editable=1;locked=0;connectable=1;" vertex="1" parent="1">
          <mxGeometry x="34.790000000000006" y="602" width="47.98" height="12" as="geometry" />
        </mxCell>
        <mxCell id="u1_5PXAy5bbMglG3VC6p-73" value="" style="image;aspect=fixed;html=1;points=[];align=center;fontSize=12;image=img/lib/azure2/compute/Virtual_Machine.svg;movable=1;resizable=1;rotatable=1;deletable=1;editable=1;locked=0;connectable=1;" vertex="1" parent="1">
          <mxGeometry x="48" y="546" width="21.56" height="20" as="geometry" />
        </mxCell>
        <mxCell id="u1_5PXAy5bbMglG3VC6p-74" value="&lt;p style=&quot;line-height: 40%;&quot;&gt;&lt;font style=&quot;font-size: 6px;&quot;&gt;onprem-vm&lt;br&gt;172.16.10.4&lt;/font&gt;&lt;/p&gt;" style="text;html=1;align=center;verticalAlign=middle;whiteSpace=wrap;rounded=0;fillColor=none;strokeColor=none;movable=1;resizable=1;rotatable=1;deletable=1;editable=1;locked=0;connectable=1;" vertex="1" parent="1">
          <mxGeometry x="40.78" y="570" width="36" height="12" as="geometry" />
        </mxCell>
        <mxCell id="u1_5PXAy5bbMglG3VC6p-101" value="" style="rounded=0;whiteSpace=wrap;html=1;shadow=0;strokeColor=default;movable=1;resizable=1;rotatable=1;deletable=1;editable=1;locked=0;connectable=1;" vertex="1" parent="1">
          <mxGeometry x="316" y="526" width="68" height="72" as="geometry" />
        </mxCell>
        <mxCell id="u1_5PXAy5bbMglG3VC6p-102" value="" style="rounded=0;whiteSpace=wrap;html=1;fillColor=default;strokeWidth=1;strokeColor=#ffffff;movable=1;resizable=1;rotatable=1;deletable=1;editable=1;locked=0;connectable=1;" vertex="1" parent="1">
          <mxGeometry x="320" y="518" width="20" height="16" as="geometry" />
        </mxCell>
        <mxCell id="u1_5PXAy5bbMglG3VC6p-103" value="" style="image;aspect=fixed;html=1;points=[];align=center;fontSize=12;image=img/lib/azure2/networking/Subnet.svg;imageBorder=none;movable=1;resizable=1;rotatable=1;deletable=1;editable=1;locked=0;connectable=1;" vertex="1" parent="1">
          <mxGeometry x="320" y="520" width="20.04" height="12" as="geometry" />
        </mxCell>
        <mxCell id="u1_5PXAy5bbMglG3VC6p-104" value="&lt;p style=&quot;line-height: 40%;&quot;&gt;&lt;font style=&quot;font-size: 6px;&quot;&gt;GatewaySubnet&lt;br&gt;10.0.0.0/24&lt;/font&gt;&lt;/p&gt;" style="text;html=1;align=center;verticalAlign=middle;whiteSpace=wrap;rounded=0;fillColor=none;strokeColor=none;movable=1;resizable=1;rotatable=1;deletable=1;editable=1;locked=0;connectable=1;" vertex="1" parent="1">
          <mxGeometry x="330.03" y="602" width="43.96" height="12" as="geometry" />
        </mxCell>
        <mxCell id="u1_5PXAy5bbMglG3VC6p-107" value="" style="rounded=0;whiteSpace=wrap;html=1;shadow=0;strokeColor=default;movable=0;resizable=0;rotatable=0;deletable=0;editable=0;locked=1;connectable=0;" vertex="1" parent="1">
          <mxGeometry x="472" y="596" width="68" height="72" as="geometry" />
        </mxCell>
        <mxCell id="u1_5PXAy5bbMglG3VC6p-108" value="" style="rounded=0;whiteSpace=wrap;html=1;fillColor=default;strokeWidth=1;strokeColor=#ffffff;movable=0;resizable=0;rotatable=0;deletable=0;editable=0;locked=1;connectable=0;" vertex="1" parent="1">
          <mxGeometry x="476" y="588" width="20" height="16" as="geometry" />
        </mxCell>
        <mxCell id="u1_5PXAy5bbMglG3VC6p-109" value="" style="image;aspect=fixed;html=1;points=[];align=center;fontSize=12;image=img/lib/azure2/networking/Subnet.svg;imageBorder=none;movable=0;resizable=0;rotatable=0;deletable=0;editable=0;locked=1;connectable=0;" vertex="1" parent="1">
          <mxGeometry x="476" y="590" width="20.04" height="12" as="geometry" />
        </mxCell>
        <mxCell id="u1_5PXAy5bbMglG3VC6p-110" value="&lt;p style=&quot;line-height: 40%;&quot;&gt;&lt;span style=&quot;font-size: 6px;&quot;&gt;workload-subnet&lt;/span&gt;&lt;span style=&quot;font-size: 6px;&quot;&gt;&lt;br&gt;&lt;/span&gt;&lt;span style=&quot;background-color: initial; font-size: 6px;&quot;&gt;10.0.10.0/24&lt;/span&gt;&lt;/p&gt;" style="text;html=1;align=center;verticalAlign=middle;whiteSpace=wrap;rounded=0;fillColor=none;strokeColor=none;movable=0;resizable=0;rotatable=0;deletable=0;editable=0;locked=1;connectable=0;" vertex="1" parent="1">
          <mxGeometry x="483.16" y="672" width="47.24" height="12" as="geometry" />
        </mxCell>
        <mxCell id="u1_5PXAy5bbMglG3VC6p-111" value="" style="image;aspect=fixed;html=1;points=[];align=center;fontSize=12;image=img/lib/azure2/compute/Virtual_Machine.svg;movable=0;resizable=0;rotatable=0;deletable=0;editable=0;locked=1;connectable=0;" vertex="1" parent="1">
          <mxGeometry x="496" y="616" width="21.56" height="20" as="geometry" />
        </mxCell>
        <mxCell id="u1_5PXAy5bbMglG3VC6p-112" value="&lt;p style=&quot;line-height: 40%;&quot;&gt;&lt;font style=&quot;font-size: 6px;&quot;&gt;hub-vm&lt;br&gt;10.0.10.4&lt;/font&gt;&lt;/p&gt;" style="text;html=1;align=center;verticalAlign=middle;whiteSpace=wrap;rounded=0;fillColor=none;strokeColor=none;movable=0;resizable=0;rotatable=0;deletable=0;editable=0;locked=1;connectable=0;" vertex="1" parent="1">
          <mxGeometry x="489.97" y="640" width="32.06" height="12" as="geometry" />
        </mxCell>
        <mxCell id="u1_5PXAy5bbMglG3VC6p-113" value="" style="rounded=0;whiteSpace=wrap;html=1;shadow=0;strokeColor=default;movable=1;resizable=1;rotatable=1;deletable=1;editable=1;locked=0;connectable=1;" vertex="1" parent="1">
          <mxGeometry x="793.17" y="349.38" width="68" height="72" as="geometry" />
        </mxCell>
        <mxCell id="u1_5PXAy5bbMglG3VC6p-114" value="" style="rounded=0;whiteSpace=wrap;html=1;fillColor=default;strokeWidth=1;strokeColor=#ffffff;movable=1;resizable=1;rotatable=1;deletable=1;editable=1;locked=0;connectable=1;" vertex="1" parent="1">
          <mxGeometry x="797.17" y="341.38" width="20" height="16" as="geometry" />
        </mxCell>
        <mxCell id="u1_5PXAy5bbMglG3VC6p-115" value="" style="image;aspect=fixed;html=1;points=[];align=center;fontSize=12;image=img/lib/azure2/networking/Subnet.svg;imageBorder=none;movable=1;resizable=1;rotatable=1;deletable=1;editable=1;locked=0;connectable=1;" vertex="1" parent="1">
          <mxGeometry x="797.17" y="343.38" width="20.04" height="12" as="geometry" />
        </mxCell>
        <mxCell id="u1_5PXAy5bbMglG3VC6p-116" value="&lt;p style=&quot;line-height: 40%;&quot;&gt;&lt;font style=&quot;font-size: 6px;&quot;&gt;workload-subnet&lt;br&gt;10.1.10.0/24&lt;/font&gt;&lt;/p&gt;" style="text;html=1;align=center;verticalAlign=middle;whiteSpace=wrap;rounded=0;fillColor=none;strokeColor=none;movable=1;resizable=1;rotatable=1;deletable=1;editable=1;locked=0;connectable=1;" vertex="1" parent="1">
          <mxGeometry x="803.3399999999999" y="425.38" width="49.22" height="12" as="geometry" />
        </mxCell>
        <mxCell id="u1_5PXAy5bbMglG3VC6p-117" value="" style="image;aspect=fixed;html=1;points=[];align=center;fontSize=12;image=img/lib/azure2/compute/Virtual_Machine.svg;movable=1;resizable=1;rotatable=1;deletable=1;editable=1;locked=0;connectable=1;" vertex="1" parent="1">
          <mxGeometry x="817.17" y="369.38" width="21.56" height="20" as="geometry" />
        </mxCell>
        <mxCell id="u1_5PXAy5bbMglG3VC6p-118" value="&lt;p style=&quot;line-height: 40%;&quot;&gt;&lt;font style=&quot;font-size: 6px;&quot;&gt;spoke1-vm&lt;br&gt;10.1.10.4&lt;/font&gt;&lt;/p&gt;" style="text;html=1;align=center;verticalAlign=middle;whiteSpace=wrap;rounded=0;fillColor=none;strokeColor=none;movable=1;resizable=1;rotatable=1;deletable=1;editable=1;locked=0;connectable=1;" vertex="1" parent="1">
          <mxGeometry x="809.17" y="393.38" width="36" height="12" as="geometry" />
        </mxCell>
        <mxCell id="u1_5PXAy5bbMglG3VC6p-119" value="" style="rounded=0;whiteSpace=wrap;html=1;shadow=0;strokeColor=default;movable=1;resizable=1;rotatable=1;deletable=1;editable=1;locked=0;connectable=1;" vertex="1" parent="1">
          <mxGeometry x="795.8199999999999" y="638" width="68" height="72" as="geometry" />
        </mxCell>
        <mxCell id="u1_5PXAy5bbMglG3VC6p-120" value="" style="rounded=0;whiteSpace=wrap;html=1;fillColor=default;strokeWidth=1;strokeColor=#ffffff;movable=1;resizable=1;rotatable=1;deletable=1;editable=1;locked=0;connectable=1;" vertex="1" parent="1">
          <mxGeometry x="799.8199999999999" y="630" width="20" height="16" as="geometry" />
        </mxCell>
        <mxCell id="u1_5PXAy5bbMglG3VC6p-121" value="" style="image;aspect=fixed;html=1;points=[];align=center;fontSize=12;image=img/lib/azure2/networking/Subnet.svg;imageBorder=none;movable=1;resizable=1;rotatable=1;deletable=1;editable=1;locked=0;connectable=1;" vertex="1" parent="1">
          <mxGeometry x="799.8199999999999" y="632" width="20.04" height="12" as="geometry" />
        </mxCell>
        <mxCell id="u1_5PXAy5bbMglG3VC6p-123" value="" style="image;aspect=fixed;html=1;points=[];align=center;fontSize=12;image=img/lib/azure2/compute/Virtual_Machine.svg;movable=1;resizable=1;rotatable=1;deletable=1;editable=1;locked=0;connectable=1;" vertex="1" parent="1">
          <mxGeometry x="819.8199999999999" y="658" width="21.56" height="20" as="geometry" />
        </mxCell>
        <mxCell id="u1_5PXAy5bbMglG3VC6p-124" value="&lt;p style=&quot;line-height: 40%;&quot;&gt;&lt;font style=&quot;font-size: 6px;&quot;&gt;spoke2-vm&lt;br&gt;10.2.10.4&lt;/font&gt;&lt;/p&gt;" style="text;html=1;align=center;verticalAlign=middle;whiteSpace=wrap;rounded=0;fillColor=none;strokeColor=none;movable=1;resizable=1;rotatable=1;deletable=1;editable=1;locked=0;connectable=1;" vertex="1" parent="1">
          <mxGeometry x="811.8199999999999" y="682" width="36" height="12" as="geometry" />
        </mxCell>
        <mxCell id="u1_5PXAy5bbMglG3VC6p-126" value="&lt;p style=&quot;line-height: 40%;&quot;&gt;&lt;font style=&quot;font-size: 6px;&quot;&gt;workload-subnet&lt;br&gt;10.2.10.0/24&lt;/font&gt;&lt;/p&gt;" style="text;html=1;align=center;verticalAlign=middle;whiteSpace=wrap;rounded=0;fillColor=none;strokeColor=none;movable=1;resizable=1;rotatable=1;deletable=1;editable=1;locked=0;connectable=1;" vertex="1" parent="1">
          <mxGeometry x="805.99" y="714" width="49.22" height="12" as="geometry" />
        </mxCell>
        <mxCell id="u1_5PXAy5bbMglG3VC6p-127" value="" style="image;aspect=fixed;html=1;points=[];align=center;fontSize=12;image=img/lib/azure2/networking/Virtual_Network_Gateways.svg;movable=1;resizable=1;rotatable=1;deletable=1;editable=1;locked=0;connectable=1;" vertex="1" parent="1">
          <mxGeometry x="339.44" y="538" width="21.11" height="28" as="geometry" />
        </mxCell>
        <mxCell id="u1_5PXAy5bbMglG3VC6p-129" value="&lt;p style=&quot;line-height: 40%;&quot;&gt;&lt;span style=&quot;font-size: 6px;&quot;&gt;Virtual Network&lt;br&gt;Gateway&lt;/span&gt;&lt;/p&gt;" style="text;html=1;align=center;verticalAlign=middle;whiteSpace=wrap;rounded=0;fillColor=none;strokeColor=none;movable=1;resizable=1;rotatable=1;deletable=1;editable=1;locked=0;connectable=1;" vertex="1" parent="1">
          <mxGeometry x="325.98999999999995" y="570" width="48" height="12" as="geometry" />
        </mxCell>
        <mxCell id="u1_5PXAy5bbMglG3VC6p-130" value="" style="rounded=0;whiteSpace=wrap;html=1;shadow=0;strokeColor=default;movable=1;resizable=1;rotatable=1;deletable=1;editable=1;locked=0;connectable=1;" vertex="1" parent="1">
          <mxGeometry x="123.38999999999999" y="526" width="68" height="72" as="geometry" />
        </mxCell>
        <mxCell id="u1_5PXAy5bbMglG3VC6p-131" value="" style="rounded=0;whiteSpace=wrap;html=1;fillColor=default;strokeWidth=1;strokeColor=#ffffff;movable=1;resizable=1;rotatable=1;deletable=1;editable=1;locked=0;connectable=1;" vertex="1" parent="1">
          <mxGeometry x="127.38999999999999" y="518" width="20" height="16" as="geometry" />
        </mxCell>
        <mxCell id="u1_5PXAy5bbMglG3VC6p-132" value="" style="image;aspect=fixed;html=1;points=[];align=center;fontSize=12;image=img/lib/azure2/networking/Subnet.svg;imageBorder=none;movable=1;resizable=1;rotatable=1;deletable=1;editable=1;locked=0;connectable=1;" vertex="1" parent="1">
          <mxGeometry x="127.38999999999999" y="520" width="20.04" height="12" as="geometry" />
        </mxCell>
        <mxCell id="u1_5PXAy5bbMglG3VC6p-133" value="&lt;p style=&quot;line-height: 40%;&quot;&gt;&lt;font style=&quot;font-size: 6px;&quot;&gt;GatewaySubnet&lt;br&gt;172.16.0.0/24&lt;/font&gt;&lt;/p&gt;" style="text;html=1;align=center;verticalAlign=middle;whiteSpace=wrap;rounded=0;fillColor=none;strokeColor=none;movable=1;resizable=1;rotatable=1;deletable=1;editable=1;locked=0;connectable=1;" vertex="1" parent="1">
          <mxGeometry x="137.41999999999996" y="602" width="43.96" height="12" as="geometry" />
        </mxCell>
        <mxCell id="u1_5PXAy5bbMglG3VC6p-134" value="" style="image;aspect=fixed;html=1;points=[];align=center;fontSize=12;image=img/lib/azure2/networking/Virtual_Network_Gateways.svg;movable=1;resizable=1;rotatable=1;deletable=1;editable=1;locked=0;connectable=1;" vertex="1" parent="1">
          <mxGeometry x="146.82999999999998" y="538" width="21.11" height="28" as="geometry" />
        </mxCell>
        <mxCell id="u1_5PXAy5bbMglG3VC6p-135" value="&lt;p style=&quot;line-height: 40%;&quot;&gt;&lt;span style=&quot;font-size: 6px;&quot;&gt;Virtual Network&lt;br&gt;Gateway&lt;/span&gt;&lt;/p&gt;" style="text;html=1;align=center;verticalAlign=middle;whiteSpace=wrap;rounded=0;fillColor=none;strokeColor=none;movable=1;resizable=1;rotatable=1;deletable=1;editable=1;locked=0;connectable=1;" vertex="1" parent="1">
          <mxGeometry x="133.37999999999994" y="570" width="48" height="12" as="geometry" />
        </mxCell>
        <mxCell id="u1_5PXAy5bbMglG3VC6p-138" value="" style="rounded=0;whiteSpace=wrap;html=1;shadow=0;strokeColor=default;movable=0;resizable=0;rotatable=0;deletable=0;editable=0;locked=1;connectable=0;" vertex="1" parent="1">
          <mxGeometry x="516" y="464" width="68" height="72" as="geometry" />
        </mxCell>
        <mxCell id="u1_5PXAy5bbMglG3VC6p-139" value="" style="rounded=0;whiteSpace=wrap;html=1;fillColor=default;strokeWidth=1;strokeColor=#ffffff;movable=0;resizable=0;rotatable=0;deletable=0;editable=0;locked=1;connectable=0;" vertex="1" parent="1">
          <mxGeometry x="520" y="456" width="20" height="16" as="geometry" />
        </mxCell>
        <mxCell id="u1_5PXAy5bbMglG3VC6p-140" value="" style="image;aspect=fixed;html=1;points=[];align=center;fontSize=12;image=img/lib/azure2/networking/Subnet.svg;imageBorder=none;movable=0;resizable=0;rotatable=0;deletable=0;editable=0;locked=1;connectable=0;" vertex="1" parent="1">
          <mxGeometry x="520" y="458" width="20.04" height="12" as="geometry" />
        </mxCell>
        <mxCell id="u1_5PXAy5bbMglG3VC6p-141" value="&lt;p style=&quot;line-height: 40%;&quot;&gt;&lt;font style=&quot;&quot;&gt;&lt;span style=&quot;font-size: 6px;&quot;&gt;AzureFirewallSubnet&lt;/span&gt;&lt;br&gt;&lt;span style=&quot;font-size: 6px;&quot;&gt;10.0.1.0/24&lt;/span&gt;&lt;/font&gt;&lt;/p&gt;" style="text;html=1;align=center;verticalAlign=middle;whiteSpace=wrap;rounded=0;fillColor=none;strokeColor=none;movable=0;resizable=0;rotatable=0;deletable=0;editable=0;locked=1;connectable=0;" vertex="1" parent="1">
          <mxGeometry x="530.03" y="540" width="43.96" height="12" as="geometry" />
        </mxCell>
        <mxCell id="u1_5PXAy5bbMglG3VC6p-143" value="&lt;p style=&quot;line-height: 40%;&quot;&gt;&lt;span style=&quot;font-size: 6px;&quot;&gt;Azure Firewall&lt;/span&gt;&lt;/p&gt;" style="text;html=1;align=center;verticalAlign=middle;whiteSpace=wrap;rounded=0;fillColor=none;strokeColor=none;movable=0;resizable=0;rotatable=0;deletable=0;editable=0;locked=1;connectable=0;" vertex="1" parent="1">
          <mxGeometry x="525.9899999999999" y="508" width="48" height="12" as="geometry" />
        </mxCell>
        <mxCell id="u1_5PXAy5bbMglG3VC6p-144" value="" style="image;sketch=0;aspect=fixed;html=1;points=[];align=center;fontSize=12;image=img/lib/mscae/Azure_Firewall.svg;movable=0;resizable=0;rotatable=0;deletable=0;editable=0;locked=1;connectable=0;" vertex="1" parent="1">
          <mxGeometry x="537.01" y="476" width="30" height="30" as="geometry" />
        </mxCell>
        <mxCell id="u1_5PXAy5bbMglG3VC6p-152" value="" style="rounded=0;whiteSpace=wrap;html=1;shadow=0;strokeColor=default;movable=0;resizable=0;rotatable=0;deletable=0;editable=0;locked=1;connectable=0;" vertex="1" parent="1">
          <mxGeometry x="408" y="464" width="68" height="72" as="geometry" />
        </mxCell>
        <mxCell id="u1_5PXAy5bbMglG3VC6p-153" value="" style="rounded=0;whiteSpace=wrap;html=1;fillColor=default;strokeWidth=1;strokeColor=#ffffff;movable=0;resizable=0;rotatable=0;deletable=0;editable=0;locked=1;connectable=0;" vertex="1" parent="1">
          <mxGeometry x="412" y="456" width="20" height="16" as="geometry" />
        </mxCell>
        <mxCell id="u1_5PXAy5bbMglG3VC6p-154" value="" style="image;aspect=fixed;html=1;points=[];align=center;fontSize=12;image=img/lib/azure2/networking/Subnet.svg;imageBorder=none;movable=0;resizable=0;rotatable=0;deletable=0;editable=0;locked=1;connectable=0;" vertex="1" parent="1">
          <mxGeometry x="412" y="458" width="20.04" height="12" as="geometry" />
        </mxCell>
        <mxCell id="u1_5PXAy5bbMglG3VC6p-155" value="&lt;p style=&quot;line-height: 40%;&quot;&gt;&lt;font style=&quot;&quot;&gt;&lt;span style=&quot;font-size: 6px;&quot;&gt;Application Gateway Subnet&lt;/span&gt;&lt;br&gt;&lt;span style=&quot;font-size: 6px;&quot;&gt;10.0.3.0/24&lt;/span&gt;&lt;/font&gt;&lt;/p&gt;" style="text;html=1;align=center;verticalAlign=middle;whiteSpace=wrap;rounded=0;fillColor=none;strokeColor=none;movable=0;resizable=0;rotatable=0;deletable=0;editable=0;locked=1;connectable=0;" vertex="1" parent="1">
          <mxGeometry x="417.98999999999995" y="544" width="53.97" height="12" as="geometry" />
        </mxCell>
        <mxCell id="u1_5PXAy5bbMglG3VC6p-156" value="&lt;p style=&quot;line-height: 40%;&quot;&gt;&lt;span style=&quot;font-size: 6px;&quot;&gt;Application Gateway&lt;/span&gt;&lt;/p&gt;" style="text;html=1;align=center;verticalAlign=middle;whiteSpace=wrap;rounded=0;fillColor=none;strokeColor=none;movable=0;resizable=0;rotatable=0;deletable=0;editable=0;locked=1;connectable=0;" vertex="1" parent="1">
          <mxGeometry x="417.98999999999995" y="508" width="48" height="12" as="geometry" />
        </mxCell>
        <mxCell id="u1_5PXAy5bbMglG3VC6p-157" value="" style="image;aspect=fixed;html=1;points=[];align=center;fontSize=12;image=img/lib/azure2/networking/Application_Gateways.svg;movable=0;resizable=0;rotatable=0;deletable=0;editable=0;locked=1;connectable=0;" vertex="1" parent="1">
          <mxGeometry x="427.99" y="476" width="28" height="28" as="geometry" />
        </mxCell>
        <mxCell id="u1_5PXAy5bbMglG3VC6p-237" value="" style="rounded=0;whiteSpace=wrap;html=1;fillColor=default;strokeWidth=1;strokeColor=#ffffff;movable=1;resizable=1;rotatable=1;deletable=1;editable=1;locked=0;connectable=1;" vertex="1" parent="1">
          <mxGeometry x="676" y="402" width="20" height="16" as="geometry" />
        </mxCell>
        <mxCell id="u1_5PXAy5bbMglG3VC6p-271" value="&lt;p style=&quot;line-height: 40%;&quot;&gt;&lt;span style=&quot;font-size: 6px;&quot;&gt;On-Premise Virtual Network&lt;br&gt;172.16.0.0/16&lt;/span&gt;&lt;/p&gt;" style="text;html=1;align=center;verticalAlign=middle;whiteSpace=wrap;rounded=0;fillColor=none;strokeColor=none;movable=1;resizable=1;rotatable=1;deletable=1;editable=1;locked=0;connectable=1;" vertex="1" parent="1">
          <mxGeometry x="69.56" y="476" width="82.44" height="12" as="geometry" />
        </mxCell>
        <mxCell id="u1_5PXAy5bbMglG3VC6p-272" value="&lt;p style=&quot;line-height: 40%;&quot;&gt;&lt;span style=&quot;font-size: 6px;&quot;&gt;Hub Virtual Network&lt;br&gt;10.0.0.0/16&lt;/span&gt;&lt;/p&gt;" style="text;html=1;align=center;verticalAlign=middle;whiteSpace=wrap;rounded=0;fillColor=none;strokeColor=none;movable=1;resizable=1;rotatable=1;deletable=1;editable=1;locked=0;connectable=1;" vertex="1" parent="1">
          <mxGeometry x="447.96000000000004" y="428" width="82.44" height="12" as="geometry" />
        </mxCell>
        <mxCell id="u1_5PXAy5bbMglG3VC6p-273" value="&lt;p style=&quot;line-height: 40%;&quot;&gt;&lt;span style=&quot;font-size: 6px;&quot;&gt;Spoke 1 Virtual Network&lt;br&gt;10.1.0.0/16&lt;/span&gt;&lt;/p&gt;" style="text;html=1;align=center;verticalAlign=middle;whiteSpace=wrap;rounded=0;fillColor=none;strokeColor=none;movable=1;resizable=1;rotatable=1;deletable=1;editable=1;locked=0;connectable=1;" vertex="1" parent="1">
          <mxGeometry x="786.73" y="293.38" width="82.44" height="12" as="geometry" />
        </mxCell>
        <mxCell id="u1_5PXAy5bbMglG3VC6p-274" value="&lt;p style=&quot;line-height: 40%;&quot;&gt;&lt;span style=&quot;font-size: 6px;&quot;&gt;Spoke 2 Virtual Network&lt;br&gt;10.2.0.0/16&lt;/span&gt;&lt;/p&gt;" style="text;html=1;align=center;verticalAlign=middle;whiteSpace=wrap;rounded=0;fillColor=none;strokeColor=none;movable=1;resizable=1;rotatable=1;deletable=1;editable=1;locked=0;connectable=1;" vertex="1" parent="1">
          <mxGeometry x="793.1700000000001" y="578" width="82.44" height="12" as="geometry" />
        </mxCell>
        <mxCell id="u1_5PXAy5bbMglG3VC6p-280" value="" style="endArrow=none;html=1;rounded=0;entryX=0;entryY=0.5;entryDx=0;entryDy=0;movable=1;resizable=1;rotatable=1;deletable=1;editable=1;locked=0;connectable=1;" edge="1" parent="1" target="u1_5PXAy5bbMglG3VC6p-233">
          <mxGeometry width="50" height="50" relative="1" as="geometry">
            <mxPoint x="628" y="560" as="sourcePoint" />
            <mxPoint x="534" y="544" as="targetPoint" />
          </mxGeometry>
        </mxCell>
        <mxCell id="u1_5PXAy5bbMglG3VC6p-281" value="" style="endArrow=none;html=1;rounded=0;movable=1;resizable=1;rotatable=1;deletable=1;editable=1;locked=0;connectable=1;" edge="1" parent="1">
          <mxGeometry width="50" height="50" relative="1" as="geometry">
            <mxPoint x="752" y="680" as="sourcePoint" />
            <mxPoint x="628" y="560" as="targetPoint" />
          </mxGeometry>
        </mxCell>
        <mxCell id="u1_5PXAy5bbMglG3VC6p-282" value="&lt;p style=&quot;line-height: 40%;&quot;&gt;&lt;span style=&quot;font-size: 6px;&quot;&gt;VNet peering&lt;/span&gt;&lt;/p&gt;" style="text;html=1;align=center;verticalAlign=middle;whiteSpace=wrap;rounded=0;fillColor=none;strokeColor=none;movable=1;resizable=1;rotatable=1;deletable=1;editable=1;locked=0;connectable=1;rotation=-55;" vertex="1" parent="1">
          <mxGeometry x="648" y="444" width="82.44" height="12" as="geometry" />
        </mxCell>
        <mxCell id="u1_5PXAy5bbMglG3VC6p-283" value="&lt;p style=&quot;line-height: 40%;&quot;&gt;&lt;span style=&quot;font-size: 6px;&quot;&gt;VNet peering&lt;/span&gt;&lt;/p&gt;" style="text;html=1;align=center;verticalAlign=middle;whiteSpace=wrap;rounded=0;fillColor=none;strokeColor=none;movable=1;resizable=1;rotatable=1;deletable=1;editable=1;locked=0;connectable=1;rotation=45;" vertex="1" parent="1">
          <mxGeometry x="636" y="618" width="82.44" height="12" as="geometry" />
        </mxCell>
        <mxCell id="u1_5PXAy5bbMglG3VC6p-285" value="" style="sketch=0;aspect=fixed;pointerEvents=1;shadow=0;dashed=0;html=1;strokeColor=none;labelPosition=center;verticalLabelPosition=bottom;verticalAlign=top;align=center;fillColor=#00188D;shape=mxgraph.mscae.general.tunnel;movable=1;resizable=1;rotatable=1;deletable=1;editable=1;locked=0;connectable=1;" vertex="1" parent="1">
          <mxGeometry x="232" y="557.68" width="48" height="8.64" as="geometry" />
        </mxCell>
        <mxCell id="u1_5PXAy5bbMglG3VC6p-286" value="" style="endArrow=classic;html=1;rounded=0;entryX=0;entryY=0.5;entryDx=0;entryDy=0;exitX=1;exitY=0.5;exitDx=0;exitDy=0;exitPerimeter=0;movable=1;resizable=1;rotatable=1;deletable=1;editable=1;locked=0;connectable=1;" edge="1" parent="1" source="u1_5PXAy5bbMglG3VC6p-285" target="u1_5PXAy5bbMglG3VC6p-101">
          <mxGeometry width="50" height="50" relative="1" as="geometry">
            <mxPoint x="368" y="626" as="sourcePoint" />
            <mxPoint x="418" y="576" as="targetPoint" />
          </mxGeometry>
        </mxCell>
        <mxCell id="u1_5PXAy5bbMglG3VC6p-287" value="" style="endArrow=classic;html=1;rounded=0;entryX=1;entryY=0.5;entryDx=0;entryDy=0;exitX=0;exitY=0.5;exitDx=0;exitDy=0;exitPerimeter=0;movable=1;resizable=1;rotatable=1;deletable=1;editable=1;locked=0;connectable=1;" edge="1" parent="1" source="u1_5PXAy5bbMglG3VC6p-285" target="u1_5PXAy5bbMglG3VC6p-130">
          <mxGeometry width="50" height="50" relative="1" as="geometry">
            <mxPoint x="368" y="626" as="sourcePoint" />
            <mxPoint x="418" y="576" as="targetPoint" />
          </mxGeometry>
        </mxCell>
        <mxCell id="u1_5PXAy5bbMglG3VC6p-288" value="&lt;p style=&quot;line-height: 40%;&quot;&gt;&lt;span style=&quot;font-size: 6px;&quot;&gt;S2S Tunnel via VPN Gateway&lt;/span&gt;&lt;/p&gt;" style="text;html=1;align=center;verticalAlign=middle;whiteSpace=wrap;rounded=0;fillColor=none;strokeColor=none;movable=1;resizable=1;rotatable=1;deletable=1;editable=1;locked=0;connectable=1;" vertex="1" parent="1">
          <mxGeometry x="232" y="540" width="51.96" height="12" as="geometry" />
        </mxCell>
        <mxCell id="u1_5PXAy5bbMglG3VC6p-292" value="&lt;p style=&quot;line-height: 104%; font-size: 18px;&quot;&gt;&lt;span style=&quot;font-size: 18px;&quot;&gt;Azure Cloud&lt;/span&gt;&lt;/p&gt;" style="text;html=1;align=center;verticalAlign=middle;whiteSpace=wrap;rounded=0;fillColor=none;strokeColor=none;movable=1;resizable=1;rotatable=1;deletable=1;editable=1;locked=0;connectable=1;fontSize=18;fontStyle=1" vertex="1" parent="1">
          <mxGeometry x="330.03" y="296" width="240" height="12" as="geometry" />
        </mxCell>
      </root>
    </mxGraphModel>
  </diagram>
</mxfile>
